<svg width="68" height="35" viewBox="0 0 68 35" fill="none" xmlns="http://www.w3.org/2000/svg">
<path d="M7.208 27.34C4.896 27.34 2.516 26.66 1.156 25.64L0.952 20.608H1.258C2.074 24.212 4.42 26.83 7.344 26.83C9.248 26.83 10.71 25.64 10.71 23.6C10.71 18.942 1.258 20.744 1.258 14.25C1.258 10.816 4.284 8.64 7.82 8.64C9.928 8.64 11.628 9.218 13.056 10.136V14.454H12.75C12.342 11.938 10.37 9.15 7.684 9.15C5.848 9.15 4.658 10.306 4.658 12.04C4.658 16.664 14.246 14.828 14.246 21.424C14.246 25.028 11.22 27.34 7.208 27.34ZM22.385 0.377998V25.13C22.385 26.354 22.997 26.49 24.561 26.592V27H15.449V26.592C17.047 26.49 17.659 26.354 17.659 25.13V3.88L15.551 2.35V2.214L22.249 0.377998H22.385ZM22.759 17.548L28.335 12.21C28.947 11.564 29.491 11.088 29.491 10.51C29.491 9.796 28.471 9.524 26.907 9.388V8.98H34.285V9.388C33.061 9.524 31.735 9.966 30.307 11.258L26.363 14.93L35.101 26.864V27H29.695L22.759 17.548ZM43.6196 27.374L36.1396 11.156C35.5616 9.966 35.2556 9.626 34.0656 9.388V8.98H43.4836V9.388C41.7836 9.524 41.1376 9.796 41.1376 10.51C41.1376 10.782 41.2056 11.122 41.3416 11.496L45.6596 22.308L49.5356 11.802C49.7056 11.292 49.7736 10.952 49.7736 10.646C49.7736 9.762 48.7876 9.49 46.9856 9.388V8.98H52.9356V9.388C51.7116 9.592 51.1676 10.034 50.6236 11.36L43.3136 29.89C42.0556 33.018 40.8996 34.48 38.9616 34.48C37.8396 34.48 36.7516 33.8 36.4456 32.712V31.148C37.1256 31.352 37.8056 31.556 38.8936 31.556C40.5936 31.556 42.0216 31.046 43.0416 28.734L43.6196 27.374ZM67.5832 21.458C66.8012 24.926 64.0472 27.34 60.2392 27.34C55.4452 27.34 52.0792 23.702 52.0792 18.466C52.0792 12.924 55.8872 8.64 60.5452 8.64C65.0332 8.64 67.4132 11.768 67.4132 15.644V15.882H56.2952V16.188C56.2952 21.22 58.6752 24.11 62.2452 24.11C64.4212 24.11 66.2232 23.192 67.4472 21.39L67.5832 21.458ZM60.0692 9.184C57.8592 9.184 56.5332 11.972 56.3292 15.27H63.1972C63.1972 11.87 62.3132 9.184 60.0692 9.184Z" fill="white"/>
</svg>
